# File created by Blade
# Date/Time:  Tue Apr 07 20:57:09 2015
# Frame Rate: 120.000 fps
#------------------------------------------------------
:FULLY-SPECIFIED
:DEGREES
428
root -28.870897 33.476646 8.878894 9.715906 -83.958745 -2.802501
Spine -15.114727 -7.497436 0.825140
Head 24.986999 -4.567231 -0.796163
LeftShoulder -17.373140 19.182989 41.867696
LeftArm 118.968237 -62.736702 -77.569916
LeftForeArm 21.960032 0.000000 21.227379
LeftHand 8.386256 -0.000000 25.443913
LeftHandThumb1 -26.253704 0.000000 33.147579
RightShoulder -18.855131 34.688452 -59.716883
RightArm 55.905769 23.303496 32.848393
RightForeArm -21.459855 -0.000000 9.998008
RightHand 12.910990 -0.000000 -29.358550
RightHandThumb1 -24.326973 -0.000000 -32.862282
LeftUpLeg 2.375211 -6.073917 -0.994150
LeftLeg -3.120555 -0.000000 0.000000
LeftFoot -1.339027 3.432741 -14.471197
LeftToeBase -17.041057 -0.000000 0.000000
RightUpLeg 1.453961 -2.372983 3.030724
RightLeg -2.047142 -0.000000 0.000000
RightFoot -4.128278 -7.557618 8.590117
RightToeBase -8.815997 -0.000000 0.000000
429
root -28.884390 33.513989 8.867626 10.516656 -83.985477 -3.538882
Spine -15.261543 -7.467167 0.942244
Head 25.168843 -4.495974 -0.786143
LeftShoulder -17.370405 19.115425 41.882264
LeftArm 118.362433 -62.797810 -76.898989
LeftForeArm 22.059320 -0.000000 21.082933
LeftHand 8.421116 0.000000 25.702506
LeftHandThumb1 -26.253704 0.000000 33.147579
RightShoulder -18.791720 34.685891 -59.672507
RightArm 55.881891 23.283355 32.894274
RightForeArm -21.421897 -0.000000 10.153499
RightHand 12.901948 0.000000 -28.632569
RightHandThumb1 -24.326973 -0.000000 -32.862282
LeftUpLeg 2.207740 -6.339089 -0.847948
LeftLeg -2.936699 -0.000000 0.000000
LeftFoot -1.063573 3.512063 -14.454017
LeftToeBase -17.545017 -0.000000 0.000000
RightUpLeg 1.421845 -2.436623 3.045912
RightLeg -2.113788 -0.000000 0.000000
RightFoot -3.444036 -7.035507 8.583447
RightToeBase -9.399304 -0.000000 0.000000
430
root -28.897692 33.550372 8.857460 11.382835 -84.001554 -4.406640
Spine -15.309323 -7.439479 1.061848
Head 25.287780 -4.470344 -0.772745
LeftShoulder -17.396588 19.117148 41.883382
LeftArm 117.994227 -62.855760 -76.477108
LeftForeArm 22.039789 -0.000000 20.979078
LeftHand 8.368864 -0.000000 25.597225
LeftHandThumb1 -26.253704 0.000000 33.147579
RightShoulder -18.803153 34.742227 -59.704364
RightArm 55.831913 23.247096 33.087710
RightForeArm -21.672512 0.000000 10.359577
RightHand 12.898884 -0.000000 -28.297142
RightHandThumb1 -24.326973 -0.000000 -32.862282
LeftUpLeg 2.143059 -6.564707 -0.695514
LeftLeg -2.813116 -0.000000 0.000000
LeftFoot -0.784228 3.550969 -14.452421
LeftToeBase -17.879541 -0.000000 0.000000
RightUpLeg 1.486003 -2.515601 3.071806
RightLeg -2.239007 -0.000000 0.000000
RightFoot -2.594738 -6.547789 8.185774
RightToeBase -10.630149 -0.000000 0.000000
431
root -28.911843 33.586774 8.846413 12.149904 -84.029392 -5.209709
Spine -15.315322 -7.403745 1.156345
Head 25.400858 -4.436674 -0.728837
LeftShoulder -17.376637 19.097057 41.886571
LeftArm 117.684535 -62.948154 -76.078936
LeftForeArm 22.024117 0.000000 20.817065
LeftHand 8.378989 -0.000000 25.642340
LeftHandThumb1 -26.253704 0.000000 33.147579
RightShoulder -18.788789 34.746501 -59.689275
RightArm 55.815619 23.207813 33.179352
RightForeArm -21.851310 -0.000000 10.441132
RightHand 13.032999 -0.000000 -29.011635
RightHandThumb1 -24.326973 -0.000000 -32.862282
LeftUpLeg 2.115551 -6.808122 -0.554086
LeftLeg -2.688765 -0.000000 0.000000
LeftFoot -0.495974 3.648196 -14.404675
LeftToeBase -18.413570 -0.000000 0.000000
RightUpLeg 1.587601 -2.551413 3.088664
RightLeg -2.372120 -0.000000 0.000000
RightFoot -1.802845 -6.169144 7.914590
RightToeBase -11.837188 -0.000000 0.000000
432
root -28.927770 33.620229 8.836295 12.832099 -84.086425 -5.978689
Spine -15.262444 -7.347112 1.212346
Head 25.497975 -4.424102 -0.631249
LeftShoulder -17.366497 19.183649 41.919922
LeftArm 117.758210 -62.982034 -76.124026
LeftForeArm 21.938478 -0.000000 20.729225
LeftHand 8.303288 -0.000000 25.649224
LeftHandThumb1 -26.253704 0.000000 33.147579
RightShoulder -18.770004 34.780050 -59.635459
RightArm 55.782048 23.135933 33.199554
RightForeArm -21.851202 -0.000000 10.505195
RightHand 12.873753 0.000000 -29.129462
RightHandThumb1 -24.326973 -0.000000 -32.862282
LeftUpLeg 2.155173 -7.031533 -0.436415
LeftLeg -2.582337 -0.000000 0.000000
LeftFoot -0.250216 3.714593 -14.401382
LeftToeBase -18.735698 -0.000000 0.000000
RightUpLeg 1.757931 -2.567373 3.095689
RightLeg -2.529748 -0.000000 0.000000
RightFoot -1.297808 -5.810787 8.223540
RightToeBase -12.049628 -0.000000 0.000000
433
root -28.942652 33.651025 8.826596 13.555571 -84.153611 -6.813269
Spine -15.162610 -7.288693 1.271680
Head 25.537540 -4.421615 -0.546125
LeftShoulder -17.355303 19.167977 41.965055
LeftArm 117.619160 -63.026740 -75.966763
LeftForeArm 21.910518 -0.000000 20.630421
LeftHand 8.266054 -0.000000 25.660086
LeftHandThumb1 -26.253704 0.000000 33.147579
RightShoulder -18.773053 34.784992 -59.617792
RightArm 55.752676 23.116223 33.311135
RightForeArm -21.917729 -0.000000 10.629869
RightHand 12.904101 -0.000000 -29.375840
RightHandThumb1 -24.326973 -0.000000 -32.862282
LeftUpLeg 2.279594 -7.420296 -0.331540
LeftLeg -2.614624 -0.000000 0.000000
LeftFoot -0.000970 3.988140 -14.428047
LeftToeBase -19.146616 -0.000000 0.000000
RightUpLeg 1.931118 -2.592093 3.110461
RightLeg -2.649577 -0.000000 0.000000
RightFoot -0.823565 -5.497189 8.492863
RightToeBase -12.405158 -0.000000 0.000000
434
root -28.956426 33.679006 8.816737 14.286550 -84.238380 -7.649779
Spine -15.065187 -7.212473 1.320980
Head 25.566730 -4.417895 -0.447670
LeftShoulder -17.335304 19.193391 42.002651
LeftArm 117.728768 -63.043982 -76.078225
LeftForeArm 21.859583 -0.000000 20.580028
LeftHand 8.241511 -0.000000 25.535411
LeftHandThumb1 -26.253704 0.000000 33.147579
RightShoulder -18.770854 34.806485 -59.600291
RightArm 55.729493 23.099616 33.410095
RightForeArm -22.021284 -0.000000 10.717228
RightHand 12.877547 -0.000000 -29.269690
RightHandThumb1 -24.326973 -0.000000 -32.862282
LeftUpLeg 2.372157 -7.666275 -0.239549
LeftLeg -2.582188 -0.000000 0.000000
LeftFoot 0.192060 4.190517 -14.462480
LeftToeBase -19.498728 -0.000000 0.000000
RightUpLeg 2.068875 -2.598825 3.130956
RightLeg -2.715064 -0.000000 0.000000
RightFoot -0.433726 -5.231653 8.745444
RightToeBase -12.658856 -0.000000 0.000000
435
root -28.966544 33.702597 8.807020 15.073328 -84.331973 -8.518971
Spine -14.986049 -7.124852 1.352258
Head 25.584797 -4.445732 -0.294747
LeftShoulder -17.302060 19.192243 42.099315
LeftArm 117.948365 -62.995821 -76.339913
LeftForeArm 21.755966 -0.000000 20.526672
LeftHand 8.256980 -0.000000 25.374008
LeftHandThumb1 -26.253704 0.000000 33.147579
RightShoulder -18.756561 34.775562 -59.532605
RightArm 55.719549 23.129969 33.516697
RightForeArm -22.081651 0.000000 10.835080
RightHand 12.922012 -0.000000 -29.219528
RightHandThumb1 -24.326973 -0.000000 -32.862282
LeftUpLeg 2.456322 -7.945748 -0.143756
LeftLeg -2.596807 -0.000000 0.000000
LeftFoot 0.344922 4.435881 -14.600962
LeftToeBase -19.775176 -0.000000 0.000000
RightUpLeg 2.156277 -2.637528 3.162414
RightLeg -2.751770 -0.000000 0.000000
RightFoot -0.175952 -5.010219 9.121984
RightToeBase -12.564266 -0.000000 0.000000
436
root -28.970427 33.722512 8.798210 15.920319 -84.443106 -9.411304
Spine -14.921120 -7.020551 1.391894
Head 25.569499 -4.464496 -0.201532
LeftShoulder -17.279649 19.143249 42.141226
LeftArm 118.059276 -62.995418 -76.418064
LeftForeArm 21.716924 -0.000000 20.430821
LeftHand 8.331336 -0.000000 25.703872
LeftHandThumb1 -26.253704 0.000000 33.147579
RightShoulder -18.797377 34.782803 -59.524563
RightArm 55.706975 23.102026 33.604634
RightForeArm -22.095386 -0.000000 10.919338
RightHand 12.983230 -0.000000 -29.185078
RightHandThumb1 -24.326973 -0.000000 -32.862282
LeftUpLeg 2.489207 -8.200189 -0.040833
LeftLeg -2.597585 -0.000000 0.000000
LeftFoot 0.465497 4.630290 -14.782297
LeftToeBase -20.044857 -0.000000 0.000000
RightUpLeg 2.169971 -2.637510 3.196064
RightLeg -2.741209 -0.000000 0.000000
RightFoot 0.068332 -4.814301 9.351468
RightToeBase -12.551306 -0.000000 0.000000
437
root -28.968272 33.739600 8.790459 16.739639 -84.566845 -10.218256
Spine -14.906570 -6.940517 1.427185
Head 25.512315 -4.468841 -0.089432
LeftShoulder -17.295339 19.020910 42.204840
LeftArm 118.162131 -62.912659 -76.542855
LeftForeArm 21.411482 0.000000 20.428533
LeftHand 8.365411 0.000000 25.115224
LeftHandThumb1 -26.253704 0.000000 33.147579
RightShoulder -18.804144 34.780148 -59.469695
RightArm 55.737163 23.131662 33.704806
RightForeArm -22.043159 -0.000000 10.986539
RightHand 13.164642 0.000000 -28.767490
RightHandThumb1 -24.326973 -0.000000 -32.862282
LeftUpLeg 2.394191 -8.207301 0.057809
LeftLeg -2.459117 -0.000000 0.000000
LeftFoot 0.565000 4.557158 -14.903015
LeftToeBase -20.347630 -0.000000 0.000000
RightUpLeg 2.113172 -2.420556 3.198973
RightLeg -2.589161 -0.000000 0.000000
RightFoot -0.112389 -4.735785 9.769515
RightToeBase -11.146697 -0.000000 0.000000
438
root -28.960948 33.750609 8.781324 17.812061 -84.703314 -11.229409
Spine -14.936440 -6.840175 1.471383
Head 25.421028 -4.486452 0.051048
LeftShoulder -17.285510 18.981427 42.266014
LeftArm 118.300422 -62.925111 -76.668885
LeftForeArm 21.329504 -0.000000 20.406558
LeftHand 8.409847 -0.000000 25.395209
LeftHandThumb1 -26.253704 0.000000 33.147579
RightShoulder -18.852818 34.817581 -59.474110
RightArm 55.699501 23.084812 33.803387
RightForeArm -21.972419 -0.000000 11.103481
RightHand 13.078481 0.000000 -28.246749
RightHandThumb1 -24.326973 -0.000000 -32.862282
LeftUpLeg 2.262481 -8.270778 0.179919
LeftLeg -2.344079 -0.000000 0.000000
LeftFoot 0.593292 4.507494 -15.093967
LeftToeBase -20.515792 -0.000000 0.000000
RightUpLeg 1.984683 -2.299772 3.255464
RightLeg -2.554706 -0.000000 0.000000
RightFoot 0.030572 -4.655985 9.847502
RightToeBase -11.141041 -0.000000 0.000000
439
root -28.951177 33.756921 8.773396 18.884272 -84.841759 -12.249950
Spine -14.942346 -6.753171 1.525816
Head 25.299518 -4.453190 0.157693
LeftShoulder -17.266966 18.937964 42.288274
LeftArm 118.458632 -62.980270 -76.783488
LeftForeArm 21.264930 -0.000000 20.355825
LeftHand 8.490332 -0.000000 25.337456
LeftHandThumb1 -26.253704 0.000000 33.147579
RightShoulder -18.874214 34.814809 -59.466925
RightArm 55.710798 23.109665 33.915941
RightForeArm -22.095117 -0.000000 11.178987
RightHand 12.907323 -0.000000 -28.880705
RightHandThumb1 -24.326973 -0.000000 -32.862282
LeftUpLeg 2.151339 -8.357839 0.294744
LeftLeg -2.257596 -0.000000 0.000000
LeftFoot 0.566666 4.491342 -15.348965
LeftToeBase -20.521807 -0.000000 0.000000
RightUpLeg 1.873881 -2.136640 3.310954
RightLeg -2.523662 -0.000000 0.000000
RightFoot 0.117024 -4.658314 9.827094
RightToeBase -11.090036 -0.000000 0.000000
